<mxfile host="app.diagrams.net" modified="2022-12-06T14:59:20.252Z" agent="5.0 (Windows)" version="20.6.0" etag="ypieBSmJTWYcxQ2Dzcq1" type="github">
  <diagram id="2dio9p3JAMcmIQygTBbo" name="第 1 页">
    <mxGraphModel dx="782" dy="392" grid="1" gridSize="10" guides="1" tooltips="1" connect="1" arrows="1" fold="1" page="1" pageScale="1" pageWidth="827" pageHeight="1169" math="0" shadow="0">
      <root>
        <mxCell id="0" />
        <mxCell id="1" parent="0" />
        <mxCell id="iS_dDltOH38D1OFg85Wk-5" style="edgeStyle=orthogonalEdgeStyle;rounded=0;orthogonalLoop=1;jettySize=auto;html=1;exitX=0;exitY=0.5;exitDx=0;exitDy=0;entryX=1;entryY=0.5;entryDx=0;entryDy=0;" edge="1" parent="1" source="iS_dDltOH38D1OFg85Wk-1" target="iS_dDltOH38D1OFg85Wk-4">
          <mxGeometry relative="1" as="geometry" />
        </mxCell>
        <mxCell id="iS_dDltOH38D1OFg85Wk-6" style="edgeStyle=orthogonalEdgeStyle;rounded=0;orthogonalLoop=1;jettySize=auto;html=1;exitX=0;exitY=0.75;exitDx=0;exitDy=0;entryX=1;entryY=0.75;entryDx=0;entryDy=0;" edge="1" parent="1" source="iS_dDltOH38D1OFg85Wk-1" target="iS_dDltOH38D1OFg85Wk-4">
          <mxGeometry relative="1" as="geometry" />
        </mxCell>
        <mxCell id="iS_dDltOH38D1OFg85Wk-9" style="edgeStyle=orthogonalEdgeStyle;rounded=0;orthogonalLoop=1;jettySize=auto;html=1;exitX=0;exitY=0.25;exitDx=0;exitDy=0;entryX=1;entryY=0.25;entryDx=0;entryDy=0;" edge="1" parent="1" source="iS_dDltOH38D1OFg85Wk-1" target="iS_dDltOH38D1OFg85Wk-4">
          <mxGeometry relative="1" as="geometry" />
        </mxCell>
        <mxCell id="iS_dDltOH38D1OFg85Wk-1" value="&lt;div&gt;夜&lt;/div&gt;&lt;div&gt;空&lt;/div&gt;&lt;div&gt;里&lt;/div&gt;&lt;div&gt;，&lt;/div&gt;&lt;div&gt;&lt;span style=&quot;background-color: transparent;&quot;&gt;星&lt;/span&gt;&lt;/div&gt;&lt;div&gt;&lt;span style=&quot;background-color: transparent;&quot;&gt;子&lt;/span&gt;&lt;/div&gt;&lt;div&gt;&lt;span style=&quot;background-color: transparent;&quot;&gt;亦&lt;/span&gt;&lt;/div&gt;&lt;div&gt;如&lt;/div&gt;&lt;div&gt;清&lt;/div&gt;&lt;div&gt;霜&lt;/div&gt;&lt;div&gt;，&lt;/div&gt;&lt;div&gt;一&lt;/div&gt;&lt;div&gt;粒&lt;/div&gt;&lt;div&gt;粒&lt;/div&gt;&lt;div&gt;零&lt;/div&gt;&lt;div&gt;落&lt;/div&gt;&lt;div&gt;凄&lt;/div&gt;&lt;div&gt;绝&lt;/div&gt;" style="rounded=1;whiteSpace=wrap;html=1;direction=west;" vertex="1" parent="1">
          <mxGeometry x="40" y="80" width="40" height="270" as="geometry" />
        </mxCell>
        <mxCell id="iS_dDltOH38D1OFg85Wk-4" value="BERT" style="rounded=1;whiteSpace=wrap;html=1;direction=west;" vertex="1" parent="1">
          <mxGeometry x="120" y="80" width="50" height="270" as="geometry" />
        </mxCell>
        <mxCell id="iS_dDltOH38D1OFg85Wk-11" value="输入层" style="text;html=1;strokeColor=none;fillColor=none;align=center;verticalAlign=middle;whiteSpace=wrap;rounded=0;labelBackgroundColor=none;" vertex="1" parent="1">
          <mxGeometry x="30" y="40" width="60" height="30" as="geometry" />
        </mxCell>
        <mxCell id="iS_dDltOH38D1OFg85Wk-13" value="" style="rounded=1;whiteSpace=wrap;html=1;direction=west;" vertex="1" parent="1">
          <mxGeometry x="370" y="70" width="60" height="270" as="geometry" />
        </mxCell>
        <mxCell id="iS_dDltOH38D1OFg85Wk-32" style="edgeStyle=orthogonalEdgeStyle;rounded=0;orthogonalLoop=1;jettySize=auto;html=1;exitX=0.75;exitY=1;exitDx=0;exitDy=0;entryX=0.75;entryY=0;entryDx=0;entryDy=0;" edge="1" parent="1" source="iS_dDltOH38D1OFg85Wk-14" target="iS_dDltOH38D1OFg85Wk-27">
          <mxGeometry relative="1" as="geometry" />
        </mxCell>
        <mxCell id="iS_dDltOH38D1OFg85Wk-14" value="LSTM" style="rounded=1;whiteSpace=wrap;html=1;labelBackgroundColor=none;" vertex="1" parent="1">
          <mxGeometry x="227.5" y="100" width="42.5" height="20" as="geometry" />
        </mxCell>
        <mxCell id="iS_dDltOH38D1OFg85Wk-31" style="edgeStyle=orthogonalEdgeStyle;rounded=0;orthogonalLoop=1;jettySize=auto;html=1;exitX=0.25;exitY=0;exitDx=0;exitDy=0;entryX=0.25;entryY=1;entryDx=0;entryDy=0;" edge="1" parent="1" source="iS_dDltOH38D1OFg85Wk-27" target="iS_dDltOH38D1OFg85Wk-14">
          <mxGeometry relative="1" as="geometry" />
        </mxCell>
        <mxCell id="iS_dDltOH38D1OFg85Wk-51" style="edgeStyle=orthogonalEdgeStyle;rounded=0;orthogonalLoop=1;jettySize=auto;html=1;exitX=0.75;exitY=1;exitDx=0;exitDy=0;entryX=0.75;entryY=0;entryDx=0;entryDy=0;" edge="1" parent="1" source="iS_dDltOH38D1OFg85Wk-27" target="iS_dDltOH38D1OFg85Wk-50">
          <mxGeometry relative="1" as="geometry" />
        </mxCell>
        <mxCell id="iS_dDltOH38D1OFg85Wk-27" value="LSTM" style="rounded=1;whiteSpace=wrap;html=1;labelBackgroundColor=none;" vertex="1" parent="1">
          <mxGeometry x="227.5" y="140" width="42.5" height="20" as="geometry" />
        </mxCell>
        <mxCell id="iS_dDltOH38D1OFg85Wk-52" style="edgeStyle=orthogonalEdgeStyle;rounded=0;orthogonalLoop=1;jettySize=auto;html=1;exitX=0.25;exitY=0;exitDx=0;exitDy=0;entryX=0.25;entryY=1;entryDx=0;entryDy=0;" edge="1" parent="1" source="iS_dDltOH38D1OFg85Wk-50" target="iS_dDltOH38D1OFg85Wk-27">
          <mxGeometry relative="1" as="geometry" />
        </mxCell>
        <mxCell id="iS_dDltOH38D1OFg85Wk-50" value="LSTM" style="rounded=1;whiteSpace=wrap;html=1;labelBackgroundColor=none;" vertex="1" parent="1">
          <mxGeometry x="227.5" y="180" width="42.5" height="20" as="geometry" />
        </mxCell>
        <mxCell id="iS_dDltOH38D1OFg85Wk-53" value="LSTM" style="rounded=1;whiteSpace=wrap;html=1;labelBackgroundColor=none;" vertex="1" parent="1">
          <mxGeometry x="220" y="220" width="42.5" height="20" as="geometry" />
        </mxCell>
      </root>
    </mxGraphModel>
  </diagram>
</mxfile>
